<?xml version="1.0" encoding="UTF-8"?>
<svg xmlns="http://www.w3.org/2000/svg" xmlns:xlink="http://www.w3.org/1999/xlink" width="80pt" height="40pt" viewBox="0 0 80 40" version="1.1">
<defs>
<clipPath id="clip1">
  <path d="M 69 14 L 75 14 L 75 20 L 69 20 Z M 69 14 "/>
</clipPath>
<clipPath id="clip2">
  <path d="M 66.222656 18.207031 L 75 14.804688 L 72.457031 24.070312 L 70.945312 19.277344 Z M 66.222656 18.207031 "/>
</clipPath>
<clipPath id="clip3">
  <path d="M 67 14 L 74 14 L 74 21 L 67 21 Z M 67 14 "/>
</clipPath>
<clipPath id="clip4">
  <path d="M 66.222656 18.207031 L 75 14.804688 L 72.457031 24.070312 L 70.945312 19.277344 Z M 66.222656 18.207031 "/>
</clipPath>
<clipPath id="clip5">
  <path d="M 66 14 L 72 14 L 72 21 L 66 21 Z M 66 14 "/>
</clipPath>
<clipPath id="clip6">
  <path d="M 66.222656 18.207031 L 75 14.804688 L 72.457031 24.070312 L 70.945312 19.277344 Z M 66.222656 18.207031 "/>
</clipPath>
<clipPath id="clip7">
  <path d="M 66 15 L 70 15 L 70 21 L 66 21 Z M 66 15 "/>
</clipPath>
<clipPath id="clip8">
  <path d="M 66.222656 18.207031 L 75 14.804688 L 72.457031 24.070312 L 70.945312 19.277344 Z M 66.222656 18.207031 "/>
</clipPath>
<clipPath id="clip9">
  <path d="M 70 14 L 75 14 L 75 21 L 70 21 Z M 70 14 "/>
</clipPath>
<clipPath id="clip10">
  <path d="M 66.222656 18.207031 L 75 14.804688 L 72.457031 24.070312 L 70.945312 19.277344 Z M 66.222656 18.207031 "/>
</clipPath>
<clipPath id="clip11">
  <path d="M 70 15 L 75 15 L 75 23 L 70 23 Z M 70 15 "/>
</clipPath>
<clipPath id="clip12">
  <path d="M 66.222656 18.207031 L 75 14.804688 L 72.457031 24.070312 L 70.945312 19.277344 Z M 66.222656 18.207031 "/>
</clipPath>
<clipPath id="clip13">
  <path d="M 70 17 L 75 17 L 75 24 L 70 24 Z M 70 17 "/>
</clipPath>
<clipPath id="clip14">
  <path d="M 66.222656 18.207031 L 75 14.804688 L 72.457031 24.070312 L 70.945312 19.277344 Z M 66.222656 18.207031 "/>
</clipPath>
<clipPath id="clip15">
  <path d="M 71 18 L 75 18 L 75 25 L 71 25 Z M 71 18 "/>
</clipPath>
<clipPath id="clip16">
  <path d="M 66.222656 18.207031 L 75 14.804688 L 72.457031 24.070312 L 70.945312 19.277344 Z M 66.222656 18.207031 "/>
</clipPath>
</defs>
<g id="surface1">
<g clip-path="url(#clip1)" clip-rule="nonzero">
<g clip-path="url(#clip2)" clip-rule="nonzero">
<path style=" stroke:none;fill-rule:nonzero;fill:rgb(99.607843%,40%,80%);fill-opacity:1;" d="M 69.582031 19.015625 L 74.5 13.792969 L 75.984375 13.777344 L 70.695312 19.582031 Z M 69.582031 19.015625 "/>
</g>
</g>
<g clip-path="url(#clip3)" clip-rule="nonzero">
<g clip-path="url(#clip4)" clip-rule="nonzero">
<path style=" stroke:none;fill-rule:nonzero;fill:rgb(78.431373%,20.392157%,79.215686%);fill-opacity:1;" d="M 67.75 19.515625 L 72.484375 14.304688 L 73.347656 15.097656 L 68.804688 20.082031 Z M 67.75 19.515625 "/>
</g>
</g>
<g clip-path="url(#clip5)" clip-rule="nonzero">
<g clip-path="url(#clip6)" clip-rule="nonzero">
<path style=" stroke:none;fill-rule:nonzero;fill:rgb(0.392157%,60.392157%,78.431373%);fill-opacity:1;" d="M 65.890625 19.804688 L 70.625 14.597656 L 71.5 15.390625 L 66.957031 20.375 Z M 65.890625 19.804688 "/>
</g>
</g>
<g clip-path="url(#clip7)" clip-rule="nonzero">
<g clip-path="url(#clip8)" clip-rule="nonzero">
<path style=" stroke:none;fill-rule:nonzero;fill:rgb(0%,40.392157%,75.686275%);fill-opacity:1;" d="M 63.832031 20.320312 L 68.570312 15.109375 L 69.445312 15.902344 L 64.902344 20.890625 Z M 63.832031 20.320312 "/>
</g>
</g>
<g clip-path="url(#clip9)" clip-rule="nonzero">
<g clip-path="url(#clip10)" clip-rule="nonzero">
<path style=" stroke:none;fill-rule:nonzero;fill:rgb(98.431373%,81.960784%,0%);fill-opacity:1;" d="M 71.167969 20.804688 L 76.167969 15.402344 L 75.25 14.582031 L 70.457031 19.765625 Z M 71.167969 20.804688 "/>
</g>
</g>
<g clip-path="url(#clip11)" clip-rule="nonzero">
<g clip-path="url(#clip12)" clip-rule="nonzero">
<path style=" stroke:none;fill-rule:nonzero;fill:rgb(100%,100%,40.392157%);fill-opacity:1;" d="M 71.445312 22.25 L 76.445312 16.75 L 75.527344 15.929688 L 70.734375 21.179688 Z M 71.445312 22.25 "/>
</g>
</g>
<g clip-path="url(#clip13)" clip-rule="nonzero">
<g clip-path="url(#clip14)" clip-rule="nonzero">
<path style=" stroke:none;fill-rule:nonzero;fill:rgb(0%,59.215686%,0%);fill-opacity:1;" d="M 71.515625 23.695312 L 76.515625 18.207031 L 75.597656 17.375 L 70.804688 22.640625 Z M 71.515625 23.695312 "/>
</g>
</g>
<g clip-path="url(#clip15)" clip-rule="nonzero">
<g clip-path="url(#clip16)" clip-rule="nonzero">
<path style=" stroke:none;fill-rule:nonzero;fill:rgb(22.745098%,78.039216%,23.137255%);fill-opacity:1;" d="M 71.777344 25.140625 L 76.792969 19.652344 L 75.875 18.820312 L 71.082031 24.082031 Z M 71.777344 25.140625 "/>
</g>
</g>
<path style=" stroke:none;fill-rule:nonzero;fill:rgb(0%,0%,0%);fill-opacity:1;" d="M 11.027344 22.515625 L 11.667969 22.734375 C 11.554688 22.902344 11.417969 23.054688 11.277344 23.195312 C 10.554688 23.917969 9.695312 24.277344 8.679688 24.277344 C 7.667969 24.277344 6.804688 23.917969 6.082031 23.195312 C 5.359375 22.472656 5 21.609375 5 20.597656 C 5 19.582031 5.359375 18.722656 6.082031 18 C 6.804688 17.277344 7.667969 16.917969 8.679688 16.917969 C 9.695312 16.917969 10.570312 17.277344 11.277344 18 C 11.429688 18.152344 11.554688 18.304688 11.667969 18.457031 L 11.027344 18.695312 C 10.957031 18.609375 10.890625 18.527344 10.820312 18.457031 C 10.222656 17.875 9.515625 17.570312 8.667969 17.570312 C 7.832031 17.570312 7.125 17.859375 6.527344 18.457031 C 5.929688 19.054688 5.640625 19.765625 5.640625 20.597656 C 5.640625 21.429688 5.929688 22.152344 6.527344 22.75 C 7.125 23.347656 7.832031 23.640625 8.667969 23.640625 C 9.5 23.640625 10.222656 23.347656 10.820312 22.75 C 10.890625 22.679688 10.972656 22.597656 11.027344 22.515625 Z M 11.027344 22.515625 "/>
<path style=" stroke:none;fill-rule:nonzero;fill:rgb(0%,0%,0%);fill-opacity:1;" d="M 13.875 13.390625 L 13.875 24.082031 L 13.277344 24.082031 L 13.277344 13.390625 Z M 13.875 13.390625 "/>
<path style=" stroke:none;fill-rule:nonzero;fill:rgb(0%,0%,0%);fill-opacity:1;" d="M 16.609375 17.527344 L 16.609375 24.097656 L 16.015625 24.097656 L 16.015625 17.527344 Z M 16.609375 17.527344 "/>
<path style=" stroke:none;fill-rule:nonzero;fill:rgb(0%,0%,0%);fill-opacity:1;" d="M 24.390625 22.515625 L 25.027344 22.734375 C 24.917969 22.902344 24.777344 23.054688 24.640625 23.195312 C 23.917969 23.917969 23.054688 24.277344 22.042969 24.277344 C 21.027344 24.277344 20.167969 23.917969 19.445312 23.195312 C 18.722656 22.472656 18.359375 21.609375 18.359375 20.597656 C 18.359375 19.582031 18.722656 18.722656 19.445312 18 C 20.167969 17.277344 21.027344 16.917969 22.042969 16.917969 C 23.054688 16.917969 23.929688 17.277344 24.640625 18 C 24.792969 18.152344 24.917969 18.304688 25.027344 18.457031 L 24.390625 18.695312 C 24.320312 18.609375 24.25 18.527344 24.179688 18.457031 C 23.582031 17.875 22.875 17.570312 22.027344 17.570312 C 21.195312 17.570312 20.484375 17.859375 19.890625 18.457031 C 19.292969 19.054688 19 19.765625 19 20.597656 C 19 21.429688 19.292969 22.152344 19.890625 22.75 C 20.484375 23.347656 21.195312 23.640625 22.027344 23.640625 C 22.859375 23.640625 23.582031 23.347656 24.179688 22.75 C 24.25 22.679688 24.320312 22.597656 24.390625 22.515625 Z M 24.390625 22.515625 "/>
<path style=" stroke:none;fill-rule:nonzero;fill:rgb(0%,0%,0%);fill-opacity:1;" d="M 27.570312 17.527344 L 27.570312 14.734375 L 28.167969 14.734375 L 28.167969 17.527344 L 29.5 17.527344 L 29.5 18.125 L 28.167969 18.125 L 28.167969 24.097656 L 27.570312 24.097656 L 27.570312 18.125 L 26.234375 18.125 L 26.234375 17.527344 Z M 27.570312 17.527344 "/>
<path style=" stroke:none;fill-rule:nonzero;fill:rgb(0%,0%,0%);fill-opacity:1;" d="M 34.375 16.929688 C 35.390625 16.929688 36.265625 17.292969 36.972656 18.015625 C 37.695312 18.734375 38.042969 19.597656 38.042969 20.609375 C 38.042969 21.625 37.679688 22.484375 36.972656 23.207031 C 36.25 23.929688 35.390625 24.292969 34.375 24.292969 C 33.359375 24.292969 32.5 23.929688 31.777344 23.207031 C 31.054688 22.484375 30.695312 21.625 30.695312 20.609375 C 30.695312 19.597656 31.054688 18.722656 31.777344 18.015625 C 32.5 17.292969 33.359375 16.929688 34.375 16.929688 Z M 32.234375 18.457031 C 31.640625 19.054688 31.347656 19.765625 31.347656 20.609375 C 31.347656 21.445312 31.640625 22.167969 32.234375 22.75 C 32.832031 23.347656 33.542969 23.640625 34.390625 23.640625 C 35.222656 23.640625 35.945312 23.347656 36.542969 22.75 C 37.140625 22.152344 37.429688 21.445312 37.429688 20.609375 C 37.429688 19.777344 37.140625 19.054688 36.542969 18.457031 C 35.945312 17.859375 35.234375 17.570312 34.390625 17.570312 C 33.542969 17.570312 32.820312 17.875 32.234375 18.457031 Z M 32.234375 18.457031 "/>
<path style=" stroke:none;fill-rule:nonzero;fill:rgb(0%,0%,0%);fill-opacity:1;" d="M 39.652344 17.527344 L 40.25 17.527344 L 40.25 18.445312 C 40.359375 18.292969 40.484375 18.152344 40.625 18 C 41.347656 17.292969 42.207031 16.929688 43.222656 16.929688 C 44.234375 16.929688 45.109375 17.292969 45.820312 18 C 46.542969 18.722656 46.890625 19.582031 46.890625 20.597656 C 46.890625 21.609375 46.527344 22.472656 45.820312 23.195312 C 45.097656 23.917969 44.234375 24.277344 43.222656 24.277344 C 42.207031 24.277344 41.347656 23.917969 40.625 23.195312 C 40.484375 23.054688 40.359375 22.902344 40.25 22.75 L 40.25 26.582031 L 39.652344 26.582031 Z M 40.265625 19.984375 L 40.265625 21.25 C 40.375 21.820312 40.652344 22.332031 41.097656 22.765625 C 41.695312 23.359375 42.402344 23.652344 43.25 23.652344 C 44.082031 23.652344 44.804688 23.359375 45.402344 22.765625 C 46 22.167969 46.292969 21.457031 46.292969 20.609375 C 46.292969 19.777344 46 19.054688 45.402344 18.457031 C 44.804688 17.859375 44.097656 17.570312 43.25 17.570312 C 42.417969 17.570312 41.695312 17.859375 41.097656 18.457031 C 40.652344 18.902344 40.375 19.402344 40.265625 19.984375 Z M 40.265625 19.984375 "/>
<path style=" stroke:none;fill-rule:nonzero;fill:rgb(0%,0%,0%);fill-opacity:1;" d="M 48.582031 17.527344 L 49.179688 17.527344 L 49.179688 18.722656 C 49.304688 18.542969 49.445312 18.375 49.609375 18.207031 C 50.140625 17.679688 50.679688 17.402344 51.234375 17.375 L 51.234375 18.027344 C 50.859375 18.042969 50.457031 18.265625 50.054688 18.667969 C 49.484375 19.234375 49.195312 19.917969 49.167969 20.707031 L 49.167969 24.097656 L 48.570312 24.097656 L 48.570312 17.527344 Z M 48.582031 17.527344 "/>
<path style=" stroke:none;fill-rule:nonzero;fill:rgb(0%,0%,0%);fill-opacity:1;" d="M 53.457031 17.527344 L 53.457031 24.097656 L 52.859375 24.097656 L 52.859375 17.527344 Z M 53.457031 17.527344 "/>
<path style=" stroke:none;fill-rule:nonzero;fill:rgb(0%,0%,0%);fill-opacity:1;" d="M 56.195312 19 L 56.195312 24.097656 L 55.597656 24.097656 L 55.597656 17.527344 L 56.195312 17.527344 L 56.195312 17.945312 C 56.734375 17.402344 57.375 17.125 58.109375 17.125 C 58.890625 17.125 59.515625 17.375 60 17.847656 C 60.484375 18.332031 60.734375 18.945312 60.75 19.679688 L 60.75 24.070312 L 60.152344 24.070312 L 60.152344 19.722656 C 60.152344 19.167969 59.945312 18.695312 59.542969 18.292969 C 59.140625 17.902344 58.667969 17.695312 58.109375 17.695312 C 57.554688 17.695312 57.082031 17.890625 56.679688 18.277344 C 56.457031 18.542969 56.304688 18.765625 56.195312 19 Z M 56.195312 19 "/>
<path style=" stroke:none;fill-rule:nonzero;fill:rgb(0%,0%,0%);fill-opacity:1;" d="M 63.695312 17.527344 L 63.695312 14.734375 L 64.292969 14.734375 L 64.292969 17.527344 L 65.625 17.527344 L 65.625 18.125 L 64.292969 18.125 L 64.292969 24.097656 L 63.695312 24.097656 L 63.695312 18.125 L 62.359375 18.125 L 62.359375 17.527344 Z M 63.695312 17.527344 "/>
<path style=" stroke:none;fill-rule:nonzero;fill:rgb(78.431373%,20.392157%,79.215686%);fill-opacity:1;" d="M 16.734375 15.375 C 16.847656 15.484375 16.917969 15.625 16.917969 15.792969 C 16.917969 15.957031 16.859375 16.097656 16.734375 16.222656 C 16.609375 16.332031 16.472656 16.402344 16.304688 16.402344 C 16.140625 16.402344 16 16.347656 15.875 16.222656 C 15.75 16.109375 15.695312 15.957031 15.695312 15.792969 C 15.695312 15.625 15.75 15.484375 15.875 15.375 C 15.984375 15.265625 16.140625 15.195312 16.304688 15.195312 C 16.484375 15.195312 16.625 15.265625 16.734375 15.375 Z M 16.734375 15.375 "/>
<path style=" stroke:none;fill-rule:nonzero;fill:rgb(78.431373%,20.392157%,79.215686%);fill-opacity:1;" d="M 16.734375 15.375 C 16.847656 15.484375 16.917969 15.625 16.917969 15.792969 C 16.917969 15.957031 16.859375 16.097656 16.734375 16.222656 C 16.609375 16.332031 16.472656 16.402344 16.304688 16.402344 C 16.140625 16.402344 16 16.347656 15.875 16.222656 C 15.75 16.109375 15.695312 15.957031 15.695312 15.792969 C 15.695312 15.625 15.75 15.484375 15.875 15.375 C 15.984375 15.265625 16.140625 15.195312 16.304688 15.195312 C 16.484375 15.195312 16.625 15.265625 16.734375 15.375 Z M 16.734375 15.375 "/>
<path style=" stroke:none;fill-rule:nonzero;fill:rgb(99.607843%,40%,80%);fill-opacity:1;" d="M 53.582031 15.375 C 53.695312 15.484375 53.765625 15.625 53.765625 15.792969 C 53.765625 15.957031 53.707031 16.097656 53.582031 16.222656 C 53.472656 16.332031 53.320312 16.402344 53.152344 16.402344 C 52.984375 16.402344 52.847656 16.347656 52.722656 16.222656 C 52.609375 16.109375 52.542969 15.957031 52.542969 15.792969 C 52.542969 15.625 52.597656 15.484375 52.722656 15.375 C 52.832031 15.265625 52.984375 15.195312 53.152344 15.195312 C 53.320312 15.195312 53.457031 15.265625 53.582031 15.375 Z M 53.582031 15.375 "/>
</g>
</svg>
