<?xml version="1.0" encoding="utf-8"?>
<!-- Generator: Adobe Illustrator 24.2.3, SVG Export Plug-In . SVG Version: 6.00 Build 0)  -->
<svg version="1.1" id="Layer_1" xmlns="http://www.w3.org/2000/svg" xmlns:xlink="http://www.w3.org/1999/xlink" x="0px" y="0px"
	 viewBox="0 0 288 288" style="enable-background:new 0 0 288 288;" xml:space="preserve">
<style type="text/css">
	.st0{clip-path:url(#SVGID_2_);fill:#FE66CC;}
	.st1{clip-path:url(#SVGID_2_);fill:#C834CA;}
	.st2{clip-path:url(#SVGID_2_);fill:#019AC8;}
	.st3{clip-path:url(#SVGID_2_);fill:#0067C1;}
	.st4{clip-path:url(#SVGID_2_);fill:#FBD100;}
	.st5{clip-path:url(#SVGID_2_);fill:#FFFF67;}
	.st6{clip-path:url(#SVGID_2_);fill:#009700;}
	.st7{clip-path:url(#SVGID_2_);fill:#3AC73B;}
	.st8{clip-path:url(#SVGID_4_);fill:#FE66CC;}
	.st9{clip-path:url(#SVGID_4_);fill:#C834CA;}
	.st10{clip-path:url(#SVGID_4_);fill:#019AC8;}
	.st11{clip-path:url(#SVGID_4_);fill:#0067C1;}
	.st12{clip-path:url(#SVGID_4_);fill:#FBD100;}
	.st13{clip-path:url(#SVGID_4_);fill:#FFFF67;}
	.st14{clip-path:url(#SVGID_4_);fill:#009700;}
	.st15{clip-path:url(#SVGID_4_);fill:#3AC73B;}
	.st16{fill:#C834CA;}
	.st17{fill:#FE66CC;}
</style>
<g>
	<g>
		<defs>
			<polygon id="SVGID_1_" points="112.4,135.1 175.6,110.7 157.3,177.3 146.4,142.8 			"/>
		</defs>
		<clipPath id="SVGID_2_">
			<use xlink:href="#SVGID_1_"  style="overflow:visible;"/>
		</clipPath>
		<polygon class="st0" points="136.6,140.9 172,103.4 182.7,103.3 144.6,145.1 		"/>
		<polygon class="st1" points="123.3,144.6 157.5,107 163.7,112.7 131,148.7 		"/>
		<polygon class="st2" points="110,146.7 144.1,109.2 150.4,114.9 117.6,150.8 		"/>
		<polygon class="st3" points="95.2,150.4 129.3,112.9 135.6,118.6 102.9,154.5 		"/>
		<polygon class="st4" points="148,153.9 184,115 177.4,109.1 142.9,146.4 		"/>
		<polygon class="st5" points="149.9,164.2 186,124.7 179.4,118.7 144.8,156.6 		"/>
		<polygon class="st6" points="150.4,174.7 186.5,135.2 179.9,129.2 145.3,167.1 		"/>
		<polygon class="st7" points="152.4,185.1 188.5,145.5 181.9,139.5 147.3,177.4 		"/>
	</g>
</g>
</svg>
